<svg width="52" height="52" viewBox="0 0 52 52" fill="none" xmlns="http://www.w3.org/2000/svg">
<path d="M43.0625 19.7169C43.0625 34.6393 26 49.5625 26 49.5625C26 49.5625 8.9375 34.6393 8.9375 19.7169C8.9375 15.1917 10.7352 10.8518 13.935 7.65193C17.1348 4.45209 21.4747 2.65444 26 2.65444C30.5253 2.65444 34.8652 4.45209 38.065 7.65193C41.2649 10.8518 43.0625 15.1917 43.0625 19.7169Z" fill="#A0522D"/>
<path d="M15.9453 38.1493C18.8755 42.3051 22.2467 46.1318 26 49.5625C26 49.5625 40.3 37.05 42.7107 23.4813C36.0937 30.8263 26.4111 36.1562 15.9453 38.1493Z" fill="#A0522D"/>
<path d="M26 33.3125C33.6284 33.3125 39.8125 27.1284 39.8125 19.5C39.8125 11.8716 33.6284 5.6875 26 5.6875C18.3716 5.6875 12.1875 11.8716 12.1875 19.5C12.1875 27.1284 18.3716 33.3125 26 33.3125Z" fill="white"/>
<path d="M34.125 17.0625H36.5625L26 8.9375L15.4375 17.0625H17.875V24.375H16.25V26H35.75V24.375H34.125V17.0625ZM32.5 17.0625V24.375H29.25V17.0625H32.5ZM27.625 17.0625V24.375H24.375V17.0625H27.625ZM19.5 17.0625H22.75V24.375H19.5V17.0625Z" fill="#8B4513"/>
</svg>
