<svg width="206" height="43" viewBox="0 0 206 43" fill="none" xmlns="http://www.w3.org/2000/svg">
<rect y="29.5" width="206" height="12" fill="#F4D03F"/>
<path d="M31.608 12.344V12.984C30.9253 13.0053 30.4133 13.0907 30.072 13.24C29.7307 13.368 29.496 13.624 29.368 14.008C29.2613 14.3707 29.208 14.9467 29.208 15.736V31.608C29.208 32.376 29.2613 32.952 29.368 33.336C29.496 33.72 29.7307 33.976 30.072 34.104C30.4133 34.232 30.9253 34.3173 31.608 34.36V35C31.0107 34.9573 30.2533 34.936 29.336 34.936C28.44 34.9147 27.5227 34.904 26.584 34.904C25.56 34.904 24.6 34.9147 23.704 34.936C22.808 34.936 22.0827 34.9573 21.528 35V34.36C22.2533 34.3173 22.7973 34.232 23.16 34.104C23.544 33.976 23.8 33.72 23.928 33.336C24.056 32.952 24.12 32.376 24.12 31.608V14.296H24.344L16.408 35.032H15.896L7.256 14.424V29.752C7.256 30.9253 7.32 31.832 7.448 32.472C7.576 33.0907 7.85333 33.5387 8.28 33.816C8.728 34.072 9.42133 34.2533 10.36 34.36V35C9.95467 34.9573 9.42133 34.936 8.76 34.936C8.09867 34.9147 7.48 34.904 6.904 34.904C6.41333 34.904 5.912 34.9147 5.4 34.936C4.888 34.936 4.46133 34.9573 4.12 35V34.36C4.80267 34.2533 5.31467 34.072 5.656 33.816C5.99733 33.56 6.22133 33.144 6.328 32.568C6.456 31.9707 6.52 31.16 6.52 30.136V15.736C6.52 14.9467 6.456 14.3707 6.328 14.008C6.22133 13.624 5.98667 13.368 5.624 13.24C5.28267 13.0907 4.78133 13.0053 4.12 12.984V12.344C4.46133 12.3653 4.888 12.3867 5.4 12.408C5.912 12.4293 6.41333 12.44 6.904 12.44C7.82133 12.44 8.71733 12.4293 9.592 12.408C10.488 12.3867 11.2773 12.3653 11.96 12.344L18.68 28.568L17.88 29.304L24.312 12.44C24.6747 12.44 25.048 12.44 25.432 12.44C25.816 12.44 26.2 12.44 26.584 12.44C27.5227 12.44 28.44 12.4293 29.336 12.408C30.2533 12.3867 31.0107 12.3653 31.608 12.344ZM48.9853 18.104V31.512C48.9853 32.472 49.1346 33.1867 49.4333 33.656C49.7319 34.104 50.2653 34.328 51.0333 34.328V35C50.3719 34.936 49.7106 34.904 49.0493 34.904C48.1533 34.904 47.3213 34.936 46.5533 35C45.7853 35.064 45.0599 35.1813 44.3773 35.352V32.472C43.8653 33.5387 43.1506 34.3067 42.2333 34.776C41.3373 35.224 40.3346 35.448 39.2253 35.448C38.3293 35.448 37.6039 35.3307 37.0493 35.096C36.4946 34.8613 36.0573 34.5627 35.7373 34.2C35.3746 33.7947 35.1186 33.2613 34.9693 32.6C34.8199 31.9387 34.7453 31.0853 34.7453 30.04V21.944C34.7453 20.984 34.5959 20.28 34.2973 19.832C34.0199 19.3627 33.4866 19.128 32.6973 19.128V18.456C33.3799 18.52 34.0413 18.552 34.6813 18.552C35.5773 18.552 36.4093 18.52 37.1773 18.456C37.9666 18.3707 38.6919 18.2533 39.3533 18.104V31.352C39.3533 31.8853 39.3959 32.3547 39.4813 32.76C39.5879 33.1653 39.7799 33.4853 40.0573 33.72C40.3346 33.9333 40.7399 34.04 41.2733 34.04C41.8493 34.04 42.3613 33.88 42.8093 33.56C43.2786 33.24 43.6519 32.8027 43.9293 32.248C44.2279 31.672 44.3773 31.032 44.3773 30.328V21.944C44.3773 20.984 44.2279 20.28 43.9293 19.832C43.6519 19.3627 43.1186 19.128 42.3293 19.128V18.456C43.0119 18.52 43.6733 18.552 44.3133 18.552C45.2093 18.552 46.0413 18.52 46.8093 18.456C47.5986 18.3707 48.3239 18.2533 48.9853 18.104ZM58.7915 18.008C59.6875 18.008 60.4662 18.1253 61.1275 18.36C61.8102 18.5733 62.3008 18.7867 62.5995 19C63.3248 19.4907 63.7728 19.1707 63.9435 18.04H64.6155C64.5728 18.6373 64.5408 19.3733 64.5195 20.248C64.4982 21.1013 64.4875 22.2427 64.4875 23.672H63.8155C63.7088 22.8827 63.5062 22.104 63.2075 21.336C62.9088 20.568 62.4715 19.9387 61.8955 19.448C61.3408 18.9573 60.6155 18.712 59.7195 18.712C59.1008 18.712 58.5782 18.8933 58.1515 19.256C57.7248 19.5973 57.5115 20.0987 57.5115 20.76C57.5115 21.4 57.7035 21.9653 58.0875 22.456C58.4715 22.9253 58.9622 23.384 59.5595 23.832C60.1782 24.2587 60.8182 24.7173 61.4795 25.208C62.1835 25.7413 62.8235 26.2747 63.3995 26.808C63.9755 27.32 64.4342 27.8853 64.7755 28.504C65.1168 29.1227 65.2875 29.8587 65.2875 30.712C65.2875 31.672 65.0102 32.5147 64.4555 33.24C63.9008 33.944 63.1648 34.488 62.2475 34.872C61.3515 35.256 60.3488 35.448 59.2395 35.448C58.5995 35.448 58.0235 35.384 57.5115 35.256C57.0208 35.128 56.5942 34.968 56.2315 34.776C55.9542 34.648 55.6875 34.5307 55.4315 34.424C55.1968 34.296 54.9728 34.1893 54.7595 34.104C54.5462 34.04 54.3542 34.1147 54.1835 34.328C54.0342 34.5413 53.9168 34.84 53.8315 35.224H53.1595C53.2022 34.5413 53.2342 33.7093 53.2555 32.728C53.2768 31.7467 53.2875 30.4453 53.2875 28.824H53.9595C54.0875 29.976 54.3222 31 54.6635 31.896C55.0048 32.7707 55.4635 33.464 56.0395 33.976C56.6368 34.4667 57.3835 34.712 58.2795 34.712C58.6422 34.712 58.9942 34.6373 59.3355 34.488C59.6768 34.3387 59.9542 34.0933 60.1675 33.752C60.4022 33.4107 60.5195 32.9733 60.5195 32.44C60.5195 31.5013 60.2102 30.7227 59.5915 30.104C58.9942 29.4853 58.2262 28.8133 57.2875 28.088C56.6048 27.5333 55.9542 26.9893 55.3355 26.456C54.7382 25.9013 54.2475 25.304 53.8635 24.664C53.4795 24.0027 53.2875 23.256 53.2875 22.424C53.2875 21.464 53.5435 20.6533 54.0555 19.992C54.5675 19.3307 55.2395 18.84 56.0715 18.52C56.9248 18.1787 57.8315 18.008 58.7915 18.008ZM75.4928 18.008C77.3701 18.008 78.8421 18.5627 79.9088 19.672C80.9754 20.7813 81.5088 22.5947 81.5088 25.112H70.9808L70.9168 24.504H77.4768C77.4981 23.4587 77.4341 22.4987 77.2848 21.624C77.1354 20.728 76.9008 20.0133 76.5808 19.48C76.2608 18.9467 75.8341 18.68 75.3008 18.68C74.5541 18.68 73.9141 19.1493 73.3808 20.088C72.8688 21.0267 72.5594 22.584 72.4528 24.76L72.5488 24.952C72.5274 25.208 72.5061 25.4747 72.4848 25.752C72.4848 26.0293 72.4848 26.3173 72.4848 26.616C72.4848 28.088 72.6874 29.2827 73.0928 30.2C73.5194 31.1173 74.0528 31.7893 74.6927 32.216C75.3328 32.6213 75.9834 32.824 76.6448 32.824C77.0928 32.824 77.5514 32.76 78.0208 32.632C78.5114 32.4827 79.0021 32.2267 79.4928 31.864C79.9834 31.48 80.4421 30.9467 80.8688 30.264L81.4448 30.456C81.1888 31.2667 80.7834 32.056 80.2288 32.824C79.6741 33.592 78.9701 34.2213 78.1168 34.712C77.2634 35.2027 76.2394 35.448 75.0448 35.448C73.5941 35.448 72.3141 35.1387 71.2048 34.52C70.0954 33.9013 69.2208 32.9627 68.5807 31.704C67.9621 30.4453 67.6528 28.8453 67.6528 26.904C67.6528 24.92 67.9834 23.2667 68.6448 21.944C69.3274 20.6213 70.2554 19.64 71.4288 19C72.6234 18.3387 73.9781 18.008 75.4928 18.008ZM99.2978 18.104V31.512C99.2978 32.472 99.4471 33.1867 99.7458 33.656C100.044 34.104 100.578 34.328 101.346 34.328V35C100.684 34.936 100.023 34.904 99.3618 34.904C98.4658 34.904 97.6338 34.936 96.8658 35C96.0978 35.064 95.3724 35.1813 94.6898 35.352V32.472C94.1778 33.5387 93.4631 34.3067 92.5458 34.776C91.6498 35.224 90.6471 35.448 89.5378 35.448C88.6418 35.448 87.9164 35.3307 87.3618 35.096C86.8071 34.8613 86.3698 34.5627 86.0498 34.2C85.6871 33.7947 85.4311 33.2613 85.2818 32.6C85.1324 31.9387 85.0578 31.0853 85.0578 30.04V21.944C85.0578 20.984 84.9084 20.28 84.6098 19.832C84.3324 19.3627 83.7991 19.128 83.0098 19.128V18.456C83.6924 18.52 84.3538 18.552 84.9938 18.552C85.8898 18.552 86.7218 18.52 87.4898 18.456C88.2791 18.3707 89.0044 18.2533 89.6658 18.104V31.352C89.6658 31.8853 89.7084 32.3547 89.7938 32.76C89.9004 33.1653 90.0924 33.4853 90.3698 33.72C90.6471 33.9333 91.0524 34.04 91.5858 34.04C92.1618 34.04 92.6738 33.88 93.1218 33.56C93.5911 33.24 93.9644 32.8027 94.2418 32.248C94.5404 31.672 94.6898 31.032 94.6898 30.328V21.944C94.6898 20.984 94.5404 20.28 94.2418 19.832C93.9644 19.3627 93.4311 19.128 92.6418 19.128V18.456C93.3244 18.52 93.9858 18.552 94.6258 18.552C95.5218 18.552 96.3538 18.52 97.1218 18.456C97.9111 18.3707 98.6364 18.2533 99.2978 18.104ZM114.384 18.008C115.28 18.008 116.005 18.1253 116.56 18.36C117.115 18.5733 117.563 18.872 117.904 19.256C118.245 19.6613 118.491 20.1947 118.64 20.856C118.789 21.496 118.864 22.3493 118.864 23.416V32.024C118.864 32.92 119.003 33.528 119.28 33.848C119.557 34.168 120.037 34.328 120.72 34.328V35C120.336 34.9787 119.749 34.9573 118.96 34.936C118.192 34.8933 117.435 34.872 116.688 34.872C115.92 34.872 115.163 34.8933 114.416 34.936C113.669 34.9573 113.104 34.9787 112.72 35V34.328C113.296 34.328 113.691 34.168 113.904 33.848C114.139 33.528 114.256 32.92 114.256 32.024V22.072C114.256 21.5387 114.213 21.08 114.128 20.696C114.043 20.2907 113.872 19.9813 113.616 19.768C113.381 19.5333 113.019 19.416 112.528 19.416C111.973 19.416 111.461 19.576 110.992 19.896C110.523 20.216 110.139 20.664 109.84 21.24C109.563 21.7947 109.424 22.424 109.424 23.128V32.024C109.424 32.92 109.541 33.528 109.776 33.848C110.011 34.168 110.405 34.328 110.96 34.328V35C110.619 34.9787 110.085 34.9573 109.36 34.936C108.656 34.8933 107.931 34.872 107.184 34.872C106.373 34.872 105.541 34.8933 104.688 34.936C103.835 34.9573 103.195 34.9787 102.768 35V34.328C103.515 34.328 104.037 34.168 104.336 33.848C104.656 33.528 104.816 32.92 104.816 32.024V21.944C104.816 20.984 104.667 20.28 104.368 19.832C104.091 19.3627 103.557 19.128 102.768 19.128V18.456C103.451 18.52 104.112 18.552 104.752 18.552C105.648 18.552 106.48 18.52 107.248 18.456C108.037 18.3707 108.763 18.2533 109.424 18.104V20.984C109.936 19.9173 110.629 19.16 111.504 18.712C112.379 18.2427 113.339 18.008 114.384 18.008ZM124.016 18.008C124.912 18.008 125.637 18.1253 126.192 18.36C126.747 18.5733 127.195 18.872 127.536 19.256C127.877 19.6613 128.123 20.1947 128.272 20.856C128.421 21.496 128.496 22.3493 128.496 23.416V32.024C128.496 32.92 128.645 33.528 128.944 33.848C129.264 34.168 129.797 34.328 130.544 34.328V35C130.139 34.9787 129.531 34.9573 128.72 34.936C127.909 34.8933 127.109 34.872 126.32 34.872C125.552 34.872 124.795 34.8933 124.048 34.936C123.301 34.9573 122.736 34.9787 122.352 35V34.328C122.928 34.328 123.323 34.168 123.536 33.848C123.771 33.528 123.888 32.92 123.888 32.024V22.072C123.888 21.5387 123.835 21.08 123.728 20.696C123.643 20.2907 123.461 19.9813 123.184 19.768C122.928 19.5333 122.523 19.416 121.968 19.416C121.413 19.416 120.901 19.5867 120.432 19.928C119.963 20.2693 119.579 20.728 119.28 21.304C119.003 21.88 118.853 22.52 118.832 23.224L118.672 21.272C119.248 19.992 120.005 19.128 120.944 18.68C121.904 18.232 122.928 18.008 124.016 18.008ZM153.094 35V34.36C153.776 34.3173 154.288 34.232 154.63 34.104C154.971 33.976 155.195 33.72 155.302 33.336C155.43 32.952 155.494 32.376 155.494 31.608V15.736C155.494 14.9467 155.43 14.3707 155.302 14.008C155.195 13.624 154.96 13.368 154.597 13.24C154.256 13.0907 153.755 13.0053 153.094 12.984V12.344C153.67 12.3653 154.416 12.3867 155.333 12.408C156.272 12.4293 157.2 12.44 158.118 12.44C159.099 12.44 160.016 12.4293 160.87 12.408C161.744 12.3867 162.448 12.3653 162.982 12.344V12.984C162.299 13.0053 161.776 13.0907 161.414 13.24C161.072 13.368 160.848 13.624 160.742 14.008C160.635 14.3707 160.582 14.9467 160.582 15.736V31.608C160.582 32.376 160.635 32.952 160.742 33.336C160.87 33.72 161.104 33.976 161.446 34.104C161.787 34.232 162.299 34.3173 162.982 34.36V35C162.448 34.9573 161.744 34.936 160.87 34.936C160.016 34.9147 159.099 34.904 158.118 34.904C157.2 34.904 156.272 34.9147 155.333 34.936C154.416 34.936 153.67 34.9573 153.094 35ZM139.526 35V34.36C140.208 34.3173 140.72 34.232 141.062 34.104C141.403 33.976 141.627 33.72 141.734 33.336C141.862 32.952 141.926 32.376 141.926 31.608V15.736C141.926 14.9467 141.862 14.3707 141.734 14.008C141.627 13.624 141.392 13.368 141.03 13.24C140.688 13.0907 140.187 13.0053 139.526 12.984V12.344C140.08 12.3653 140.795 12.3867 141.67 12.408C142.566 12.4293 143.536 12.44 144.582 12.44C145.478 12.44 146.363 12.4293 147.238 12.408C148.112 12.3867 148.838 12.3653 149.414 12.344V12.984C148.731 13.0053 148.208 13.0907 147.845 13.24C147.504 13.368 147.28 13.624 147.174 14.008C147.067 14.3707 147.014 14.9467 147.014 15.736V31.608C147.014 32.376 147.067 32.952 147.174 33.336C147.302 33.72 147.536 33.976 147.878 34.104C148.219 34.232 148.731 34.3173 149.414 34.36V35C148.838 34.9573 148.112 34.936 147.238 34.936C146.363 34.9147 145.478 34.904 144.582 34.904C143.536 34.904 142.566 34.9147 141.67 34.936C140.795 34.936 140.08 34.9573 139.526 35ZM144.934 23.928V23.288H157.574V23.928H144.934ZM180.36 18.104V31.512C180.36 32.472 180.51 33.1867 180.808 33.656C181.107 34.104 181.64 34.328 182.408 34.328V35C181.747 34.936 181.086 34.904 180.424 34.904C179.528 34.904 178.696 34.936 177.928 35C177.16 35.064 176.435 35.1813 175.752 35.352V32.472C175.24 33.5387 174.526 34.3067 173.608 34.776C172.712 35.224 171.71 35.448 170.6 35.448C169.704 35.448 168.979 35.3307 168.424 35.096C167.87 34.8613 167.432 34.5627 167.112 34.2C166.75 33.7947 166.494 33.2613 166.344 32.6C166.195 31.9387 166.12 31.0853 166.12 30.04V21.944C166.12 20.984 165.971 20.28 165.672 19.832C165.395 19.3627 164.862 19.128 164.072 19.128V18.456C164.755 18.52 165.416 18.552 166.056 18.552C166.952 18.552 167.784 18.52 168.552 18.456C169.342 18.3707 170.067 18.2533 170.728 18.104V31.352C170.728 31.8853 170.771 32.3547 170.856 32.76C170.963 33.1653 171.155 33.4853 171.432 33.72C171.71 33.9333 172.115 34.04 172.648 34.04C173.224 34.04 173.736 33.88 174.184 33.56C174.654 33.24 175.027 32.8027 175.304 32.248C175.603 31.672 175.752 31.032 175.752 30.328V21.944C175.752 20.984 175.603 20.28 175.304 19.832C175.027 19.3627 174.494 19.128 173.704 19.128V18.456C174.387 18.52 175.048 18.552 175.688 18.552C176.584 18.552 177.416 18.52 178.184 18.456C178.974 18.3707 179.699 18.2533 180.36 18.104ZM194.807 18.008C196.471 18.008 197.847 18.6907 198.935 20.056C200.044 21.4 200.599 23.48 200.599 26.296C200.599 28.5147 200.257 30.296 199.575 31.64C198.913 32.984 198.028 33.9547 196.919 34.552C195.809 35.1493 194.593 35.448 193.271 35.448C192.396 35.448 191.585 35.2987 190.839 35C190.092 34.7013 189.452 34.2107 188.919 33.528L189.367 33.368C189.751 33.8373 190.199 34.1893 190.711 34.424C191.244 34.6587 191.767 34.776 192.279 34.776C193.452 34.776 194.327 34.1147 194.903 32.792C195.479 31.4693 195.767 29.4533 195.767 26.744C195.767 24.9093 195.649 23.4587 195.415 22.392C195.201 21.304 194.881 20.536 194.455 20.088C194.028 19.6187 193.516 19.384 192.919 19.384C192.172 19.384 191.489 19.6933 190.871 20.312C190.252 20.9093 189.9 21.752 189.815 22.84L189.655 21.72C190.039 20.504 190.689 19.5867 191.607 18.968C192.524 18.328 193.591 18.008 194.807 18.008ZM189.911 9.976V34.36C189.377 34.2747 188.833 34.2747 188.279 34.36C187.724 34.4453 187.212 34.5947 186.743 34.808C186.273 35 185.879 35.2347 185.559 35.512L185.079 35.224C185.164 34.9253 185.217 34.6267 185.239 34.328C185.281 34.0293 185.303 33.7307 185.303 33.432V13.816C185.303 12.856 185.153 12.152 184.855 11.704C184.577 11.2347 184.044 11 183.255 11V10.328C183.937 10.392 184.599 10.424 185.239 10.424C186.113 10.424 186.945 10.392 187.735 10.328C188.524 10.2427 189.249 10.1253 189.911 9.976Z" fill="#8B4513"/>
</svg>
